# This file uses centimeters as units for non-parametric coordinates.

mtllib ExampleObject2.mtl
g default
v -6.510198 0.860905 0.000000
v -4.000000 -0.500000 0.000000
v -2.620971 -2.034016 0.000000
v -5.000432 2.492371 0.000000
v -1.898026 -0.715245 0.000000
v 1.232886 -1.950445 0.000000
v 0.280739 3.413568 0.000000
v 1.182580 0.042456 0.000000
v 3.709752 -2.755025 0.000000
v 3.825197 -1.211208 -0.105734
v 3.171437 1.060884 0.000000
v -5.685992 1.427195 0.000000
v -4.094349 -0.995888 0.000000
v -2.682936 1.380574 0.000000
v -1.290087 2.917536 0.000000
v 0.554811 -1.623731 0.000000
v 0.298008 1.999155 0.000000
v 0.396578 0.412021 0.000000
v 1.768402 2.481805 0.000000
v 3.249163 3.313697 0.000000
v 4.134995 0.793384 0.000000
v -4.890345 -1.601190 0.000000
v -5.943908 0.036699 0.000000
v -3.294639 0.589486 0.000000
v -3.000000 -0.500000 0.000000
v -2.172809 2.447639 0.000000
v -1.620971 -2.034016 0.000000
v -0.092997 -2.385533 0.000000
v -4.000432 2.492371 0.000000
v 0.298008 0.999155 0.000000
v -0.898026 -0.715245 0.000000
v 0.396578 -0.587979 0.000000
v 2.232886 -1.950445 0.000000
v 2.495940 1.795737 0.000000
v 1.280739 3.413568 0.000000
v 4.203001 3.013376 0.000000
v 1.845692 -0.706064 0.000000
v 4.088909 -1.829693 0.000000
v 4.604859 -0.589992 -0.026883
v -4.699652 -0.199892 0.000000
v -4.000000 0.500000 0.000000
v -3.474024 1.992276 0.000000
v -2.620971 -1.034016 0.000000
v -1.759984 3.800257 0.000000
v -5.000432 3.492371 0.000000
v -0.206992 -0.975922 0.000000
v -1.898026 0.284755 0.000000
v -0.701992 1.999155 0.000000
v 1.232886 -0.950445 0.000000
v -0.603422 0.412021 0.000000
v 0.280739 4.413568 0.000000
v 1.082334 1.754267 0.000000
v 1.931100 0.705568 0.000000
v 2.948841 2.359859 0.000000
v 2.784420 -2.375869 0.000000
v 3.199376 -0.442598 0.026883
v 4.402494 1.756942 0.000000
vt 0.050972 0.503989
vt 0.096726 0.400068
vt 0.117564 0.575390
vt 0.197257 0.370237
vt 0.181850 0.193554
vt 0.246163 0.269873
vt 0.253787 0.332398
vt 0.334583 0.332398
vt 0.253787 0.458484
vt 0.296284 0.646638
vt 0.310777 0.469766
vt 0.360201 0.569511
vt 0.365207 0.138980
vt 0.446004 0.138980
vt 0.365207 0.265066
vt 0.434772 0.874599
vt 0.401417 0.704053
vt 0.472738 0.763300
vt 0.172955 0.709693
vt 0.253752 0.709693
vt 0.172955 0.835779
vt 0.560248 0.272391
vt 0.569458 0.094659
vt 0.621799 0.190711
vt 0.423619 0.305259
vt 0.504415 0.305259
vt 0.423619 0.431344
vt 0.520254 0.647506
vt 0.601050 0.521420
vt 0.601050 0.647506
vt 0.676585 0.149517
vt 0.757381 0.149517
vt 0.676585 0.275603
vt 0.528218 0.447391
vt 0.609014 0.321305
vt 0.609014 0.447391
vt 0.599655 0.825843
vt 0.680451 0.825843
vt 0.599655 0.951929
vt 0.664421 0.616629
vt 0.778635 0.621858
vt 0.719853 0.708361
vt 0.672520 0.400794
vt 0.726098 0.306416
vt 0.732998 0.484403
vt 0.815228 0.692985
vt 0.916560 0.775384
vt 0.839493 0.813251
vt 0.876707 0.048071
vt 0.907341 0.164743
vt 0.801943 0.095878
vt 0.886034 0.242725
vt 0.949028 0.321051
vt 0.835470 0.339635
vt 0.932678 0.616966
vt 0.833213 0.529203
vt 0.911065 0.495475
vn 0.000000 0.000000 1.000000
vn 0.000000 0.000000 1.000000
vn 0.000000 0.000000 1.000000
vn 0.000000 0.000000 1.000000
vn 0.000000 0.000000 1.000000
vn 0.000000 0.000000 1.000000
vn 0.000000 0.000000 1.000000
vn 0.000000 0.000000 1.000000
vn 0.000000 0.000000 1.000000
vn 0.000000 0.000000 1.000000
vn 0.000000 0.000000 1.000000
vn 0.000000 0.000000 1.000000
vn 0.000000 0.000000 1.000000
vn 0.000000 0.000000 1.000000
vn 0.000000 0.000000 1.000000
vn 0.000000 0.000000 1.000000
vn 0.000000 0.000000 1.000000
vn 0.000000 0.000000 1.000000
vn 0.000000 0.000000 1.000000
vn 0.000000 0.000000 1.000000
vn 0.000000 0.000000 1.000000
vn 0.000000 0.000000 1.000000
vn 0.000000 0.000000 1.000000
vn 0.000000 0.000000 1.000000
vn 0.000000 0.000000 1.000000
vn 0.000000 0.000000 1.000000
vn 0.000000 0.000000 1.000000
vn 0.000000 0.000000 1.000000
vn 0.000000 0.000000 1.000000
vn 0.000000 0.000000 1.000000
vn 0.000000 0.000000 1.000000
vn 0.000000 0.000000 1.000000
vn 0.000000 0.000000 1.000000
vn 0.000000 0.000000 1.000000
vn 0.000000 0.000000 1.000000
vn 0.000000 0.000000 1.000000
vn 0.000000 0.000000 1.000000
vn 0.000000 0.000000 1.000000
vn 0.000000 0.000000 1.000000
vn 0.000000 0.000000 1.000000
vn 0.000000 0.000000 1.000000
vn 0.000000 0.000000 1.000000
vn 0.000000 0.000000 1.000000
vn 0.000000 0.000000 1.000000
vn 0.000000 0.000000 1.000000
vn 0.000000 0.000000 1.000000
vn 0.000000 0.000000 1.000000
vn 0.000000 0.000000 1.000000
vn 0.000000 0.000000 1.000000
vn 0.000000 0.000000 1.000000
vn 0.000000 0.000000 1.000000
vn 0.021778 -0.152743 0.988026
vn 0.021778 -0.152744 0.988026
vn 0.021778 -0.152744 0.988026
vn 0.000000 0.000000 1.000000
vn 0.000000 0.000000 1.000000
vn 0.000000 0.000000 1.000000
s off
g pCube1
usemtl initialShadingGroup
f 1/1/1 23/2/2 12/3/3
f 40/4/4 22/5/5 13/6/6
f 2/7/7 25/8/8 41/9/9
f 42/10/10 24/11/11 14/12/12
f 3/13/13 27/14/14 43/15/15
f 44/16/16 26/17/17 15/18/18
f 4/19/19 29/20/20 45/21/21
f 46/22/22 28/23/23 16/24/24
f 5/25/25 31/26/26 47/27/27
f 48/28/28 30/29/29 17/30/30
f 6/31/31 33/32/32 49/33/33
f 50/34/34 32/35/35 18/36/36
f 7/37/37 35/38/38 51/39/39
f 52/40/40 34/41/41 19/42/42
f 8/43/43 37/44/44 53/45/45
f 54/46/46 36/47/47 20/48/48
f 9/49/49 38/50/50 55/51/51
f 10/52/52 39/53/53 56/54/54
f 57/55/55 11/56/56 21/57/57
